<svg xmlns="http://www.w3.org/2000/svg" xmlns:xlink="http://www.w3.org/1999/xlink" width="500" zoomAndPan="magnify" viewBox="0 0 375 374.999991" height="500" preserveAspectRatio="xMidYMid meet" version="1.2"><defs/><g id="621d007624"><g style="fill:#000000;fill-opacity:1;"><g transform="translate(104.333822, 237.43995)"><path style="stroke:none" d="M 58.984375 -24.0625 C 58.984375 -19.5625 58.019531 -15.453125 56.09375 -11.734375 C 54.164062 -8.015625 51.441406 -5.03125 47.921875 -2.78125 C 44.398438 -0.53125 40.226562 0.59375 35.40625 0.59375 C 33.84375 0.59375 32.375 0.285156 31 -0.328125 C 29.632812 -0.953125 28.59375 -1.625 27.875 -2.34375 L 27.875 16.625 C 27.875 17.21875 27.691406 17.722656 27.328125 18.140625 C 26.972656 18.566406 26.4375 18.78125 25.71875 18.78125 L 8.90625 18.78125 C 8.445312 18.78125 7.9375 18.582031 7.375 18.1875 C 6.820312 17.800781 6.546875 17.28125 6.546875 16.625 L 6.546875 -45.1875 C 6.546875 -45.644531 6.609375 -46.050781 6.734375 -46.40625 C 6.867188 -46.769531 7.132812 -47.082031 7.53125 -47.34375 C 7.789062 -47.601562 8.113281 -47.765625 8.5 -47.828125 C 8.894531 -47.890625 9.222656 -47.921875 9.484375 -47.921875 L 20.15625 -47.921875 C 21.257812 -47.921875 21.988281 -47.5625 22.34375 -46.84375 C 22.707031 -46.132812 23.179688 -44.832031 23.765625 -42.9375 C 24.484375 -43.65625 25.316406 -44.453125 26.265625 -45.328125 C 27.210938 -46.210938 28.484375 -46.992188 30.078125 -47.671875 C 31.671875 -48.359375 33.738281 -48.703125 36.28125 -48.703125 C 40.519531 -48.703125 44.351562 -47.578125 47.78125 -45.328125 C 51.207031 -43.085938 53.929688 -40.109375 55.953125 -36.390625 C 57.972656 -32.671875 58.984375 -28.5625 58.984375 -24.0625 Z M 26.21875 -24.359375 C 26.21875 -22.523438 26.738281 -20.988281 27.78125 -19.75 C 28.820312 -18.519531 30.222656 -17.90625 31.984375 -17.90625 C 33.742188 -17.90625 35.160156 -18.519531 36.234375 -19.75 C 37.316406 -20.988281 37.859375 -22.523438 37.859375 -24.359375 C 37.859375 -26.242188 37.316406 -27.773438 36.234375 -28.953125 C 35.160156 -30.128906 33.742188 -30.71875 31.984375 -30.71875 C 30.222656 -30.71875 28.820312 -30.128906 27.78125 -28.953125 C 26.738281 -27.773438 26.21875 -26.242188 26.21875 -24.359375 Z M 26.21875 -24.359375 "/></g></g><g style="fill:#000000;fill-opacity:1;"><g transform="translate(157.343493, 237.43995)"><path style="stroke:none" d="M 36.671875 -15.9375 L 36.78125 -15.9375 C 36.90625 -16.070312 37.066406 -16.140625 37.265625 -16.140625 C 37.460938 -16.140625 37.59375 -16.140625 37.65625 -16.140625 C 38.050781 -16.140625 38.441406 -15.878906 38.828125 -15.359375 L 44.609375 -6.9375 L 44.609375 -7.046875 C 44.992188 -6.648438 45.1875 -6.222656 45.1875 -5.765625 C 45.1875 -5.179688 45.003906 -4.691406 44.640625 -4.296875 C 44.285156 -3.910156 43.878906 -3.585938 43.421875 -3.328125 C 41.398438 -1.890625 39.148438 -0.828125 36.671875 -0.140625 C 34.203125 0.535156 31.628906 0.875 28.953125 0.875 C 24.453125 0.875 20.34375 -0.210938 16.625 -2.390625 C 12.90625 -4.578125 9.9375 -7.546875 7.71875 -11.296875 C 5.507812 -15.046875 4.40625 -19.234375 4.40625 -23.859375 C 4.40625 -28.234375 5.445312 -32.296875 7.53125 -36.046875 C 9.613281 -39.796875 12.445312 -42.8125 16.03125 -45.09375 C 19.625 -47.375 23.703125 -48.515625 28.265625 -48.515625 C 32.441406 -48.515625 36.238281 -47.550781 39.65625 -45.625 C 43.082031 -43.707031 45.882812 -41.117188 48.0625 -37.859375 C 50.25 -34.597656 51.570312 -30.878906 52.03125 -26.703125 C 51.96875 -24.097656 51.378906 -22.007812 50.265625 -20.4375 C 49.160156 -18.875 47.046875 -18.09375 43.921875 -18.09375 L 22.40625 -18.09375 C 23.1875 -16.851562 24.273438 -15.84375 25.671875 -15.0625 C 27.078125 -14.28125 28.367188 -13.890625 29.546875 -13.890625 C 30.972656 -13.890625 32.367188 -14.117188 33.734375 -14.578125 C 35.109375 -15.035156 36.085938 -15.488281 36.671875 -15.9375 Z M 29.140625 -33.546875 C 27.515625 -33.546875 26.144531 -33.15625 25.03125 -32.375 C 23.925781 -31.59375 23.113281 -30.648438 22.59375 -29.546875 L 35.703125 -29.546875 C 35.179688 -30.390625 34.414062 -31.265625 33.40625 -32.171875 C 32.394531 -33.085938 30.972656 -33.546875 29.140625 -33.546875 Z M 29.140625 -33.546875 "/></g></g><g style="fill:#000000;fill-opacity:1;"><g transform="translate(203.604651, 237.43995)"><path style="stroke:none" d="M 39.90625 -2.15625 L 39.90625 -23.96875 C 39.90625 -25.789062 39.414062 -27.304688 38.4375 -28.515625 C 37.457031 -29.722656 36.085938 -30.328125 34.328125 -30.328125 C 32.703125 -30.328125 31.101562 -29.785156 29.53125 -28.703125 C 27.96875 -27.628906 27.125 -26.242188 27 -24.546875 L 27 -2.15625 C 27 -1.5 26.738281 -0.972656 26.21875 -0.578125 C 25.695312 -0.191406 25.175781 0 24.65625 0 L 8.703125 0 C 8.054688 0 7.535156 -0.207031 7.140625 -0.625 C 6.742188 -1.050781 6.546875 -1.5625 6.546875 -2.15625 L 6.546875 -45.09375 C 6.546875 -46.070312 6.875 -46.789062 7.53125 -47.25 C 7.851562 -47.507812 8.191406 -47.671875 8.546875 -47.734375 C 8.910156 -47.796875 9.222656 -47.828125 9.484375 -47.828125 L 20.15625 -47.828125 C 21.519531 -47.828125 22.429688 -47.335938 22.890625 -46.359375 C 23.347656 -45.378906 23.800781 -43.976562 24.25 -42.15625 C 24.96875 -43.070312 26.109375 -44.035156 27.671875 -45.046875 C 29.242188 -46.054688 31.15625 -46.914062 33.40625 -47.625 C 35.65625 -48.34375 38.113281 -48.703125 40.78125 -48.703125 C 44.957031 -48.703125 48.316406 -48.050781 50.859375 -46.75 C 53.398438 -45.445312 55.351562 -43.65625 56.71875 -41.375 C 58.09375 -39.09375 59.023438 -36.46875 59.515625 -33.5 C 60.003906 -30.53125 60.25 -27.382812 60.25 -24.0625 L 60.25 -2.15625 C 60.25 -1.5 59.988281 -0.972656 59.46875 -0.578125 C 58.945312 -0.191406 58.425781 0 57.90625 0 L 42.0625 0 C 41.40625 0 40.878906 -0.207031 40.484375 -0.625 C 40.097656 -1.050781 39.90625 -1.5625 39.90625 -2.15625 Z M 39.90625 -2.15625 "/></g></g><g style="fill:#000000;fill-opacity:1;"><g transform="translate(59.198251, 176.560352)"><path style="stroke:none" d="M 16.59375 1.171875 C 15.226562 1.171875 13.914062 0.882812 12.65625 0.3125 C 12.082031 2.9375 11.582031 5.296875 11.15625 7.390625 C 10.738281 9.484375 10.375 11.472656 10.0625 13.359375 C 9.800781 15.085938 10.535156 16.191406 12.265625 16.671875 L 14.234375 17.296875 L 14.078125 18.078125 L -4.875 18.078125 L -4.71875 17.296875 L -3.21875 16.90625 C -1.382812 16.375 -0.285156 15.191406 0.078125 13.359375 L 8.96875 -29 C 9.332031 -31.050781 8.597656 -32.492188 6.765625 -33.328125 L 5.265625 -33.953125 L 5.421875 -34.828125 L 19.96875 -39.0625 L 20.75 -38.4375 L 19.109375 -30.1875 C 21.148438 -32.75 23.492188 -34.851562 26.140625 -36.5 C 28.785156 -38.15625 31.257812 -38.984375 33.5625 -38.984375 C 35.71875 -38.984375 37.578125 -38.222656 39.140625 -36.703125 C 40.710938 -35.191406 41.5 -32.441406 41.5 -28.453125 C 41.5 -25.578125 41.015625 -22.722656 40.046875 -19.890625 C 39.078125 -17.054688 37.738281 -14.367188 36.03125 -11.828125 C 34.332031 -9.285156 32.410156 -7.046875 30.265625 -5.109375 C 28.117188 -3.171875 25.863281 -1.640625 23.5 -0.515625 C 21.144531 0.609375 18.84375 1.171875 16.59375 1.171875 Z M 26.734375 -33.171875 C 25.523438 -33.171875 24.210938 -32.695312 22.796875 -31.75 C 21.378906 -30.8125 19.988281 -29.503906 18.625 -27.828125 L 14 -5.109375 C 15.9375 -3.171875 17.953125 -2.203125 20.046875 -2.203125 C 23.140625 -2.203125 25.679688 -3.828125 27.671875 -7.078125 C 28.398438 -8.335938 29.078125 -9.9375 29.703125 -11.875 C 30.335938 -13.8125 30.851562 -15.921875 31.25 -18.203125 C 31.644531 -20.484375 31.84375 -22.695312 31.84375 -24.84375 C 31.84375 -27.457031 31.410156 -29.5 30.546875 -30.96875 C 29.679688 -32.4375 28.410156 -33.171875 26.734375 -33.171875 Z M 26.734375 -33.171875 "/></g></g><g style="fill:#000000;fill-opacity:1;"><g transform="translate(96.379862, 176.560352)"><path style="stroke:none" d="M 12.1875 1.171875 C 10.71875 1.171875 9.328125 0.832031 8.015625 0.15625 C 6.703125 -0.519531 5.640625 -1.644531 4.828125 -3.21875 C 4.015625 -4.789062 3.609375 -6.863281 3.609375 -9.4375 C 3.609375 -12.207031 4.160156 -14.992188 5.265625 -17.796875 C 6.367188 -20.609375 7.835938 -23.285156 9.671875 -25.828125 C 11.503906 -28.367188 13.546875 -30.617188 15.796875 -32.578125 C 18.054688 -34.546875 20.390625 -36.101562 22.796875 -37.25 C 25.203125 -38.40625 27.484375 -38.984375 29.640625 -38.984375 C 30.679688 -38.984375 31.660156 -38.785156 32.578125 -38.390625 C 33.492188 -38.003906 34.375 -37.472656 35.21875 -36.796875 L 41.578125 -39.21875 L 42.21875 -38.828125 L 35.375 -8.71875 C 35.007812 -7.257812 34.828125 -6.054688 34.828125 -5.109375 C 34.828125 -4.003906 35.320312 -3.453125 36.3125 -3.453125 C 37.050781 -3.453125 37.90625 -3.789062 38.875 -4.46875 C 39.84375 -5.15625 40.957031 -6.078125 42.21875 -7.234375 L 42.84375 -6.609375 C 42.050781 -5.347656 41.066406 -4.125 39.890625 -2.9375 C 38.710938 -1.757812 37.398438 -0.78125 35.953125 0 C 34.515625 0.78125 32.984375 1.171875 31.359375 1.171875 C 29.578125 1.171875 28.132812 0.632812 27.03125 -0.4375 C 25.9375 -1.507812 25.390625 -3.171875 25.390625 -5.421875 C 25.390625 -6.160156 25.414062 -6.867188 25.46875 -7.546875 C 23.375 -5.191406 21.160156 -3.148438 18.828125 -1.421875 C 16.492188 0.304688 14.28125 1.171875 12.1875 1.171875 Z M 12.890625 -12.96875 C 12.890625 -10.1875 13.347656 -8.179688 14.265625 -6.953125 C 15.179688 -5.722656 16.398438 -5.109375 17.921875 -5.109375 C 19.179688 -5.109375 20.4375 -5.5 21.6875 -6.28125 C 22.945312 -7.070312 24.3125 -8.203125 25.78125 -9.671875 C 25.882812 -10.296875 26.015625 -10.953125 26.171875 -11.640625 L 31.125 -34.28125 C 30.445312 -35.113281 29.632812 -35.6875 28.6875 -36 C 27.75 -36.3125 26.910156 -36.46875 26.171875 -36.46875 C 23.921875 -36.46875 21.566406 -35.132812 19.109375 -32.46875 C 17.160156 -30.320312 15.632812 -27.488281 14.53125 -23.96875 C 13.4375 -20.457031 12.890625 -16.789062 12.890625 -12.96875 Z M 12.890625 -12.96875 "/></g></g><g style="fill:#000000;fill-opacity:1;"><g transform="translate(136.391403, 176.560352)"><path style="stroke:none" d="M 16.59375 1.171875 C 15.226562 1.171875 13.914062 0.882812 12.65625 0.3125 C 12.082031 2.9375 11.582031 5.296875 11.15625 7.390625 C 10.738281 9.484375 10.375 11.472656 10.0625 13.359375 C 9.800781 15.085938 10.535156 16.191406 12.265625 16.671875 L 14.234375 17.296875 L 14.078125 18.078125 L -4.875 18.078125 L -4.71875 17.296875 L -3.21875 16.90625 C -1.382812 16.375 -0.285156 15.191406 0.078125 13.359375 L 8.96875 -29 C 9.332031 -31.050781 8.597656 -32.492188 6.765625 -33.328125 L 5.265625 -33.953125 L 5.421875 -34.828125 L 19.96875 -39.0625 L 20.75 -38.4375 L 19.109375 -30.1875 C 21.148438 -32.75 23.492188 -34.851562 26.140625 -36.5 C 28.785156 -38.15625 31.257812 -38.984375 33.5625 -38.984375 C 35.71875 -38.984375 37.578125 -38.222656 39.140625 -36.703125 C 40.710938 -35.191406 41.5 -32.441406 41.5 -28.453125 C 41.5 -25.578125 41.015625 -22.722656 40.046875 -19.890625 C 39.078125 -17.054688 37.738281 -14.367188 36.03125 -11.828125 C 34.332031 -9.285156 32.410156 -7.046875 30.265625 -5.109375 C 28.117188 -3.171875 25.863281 -1.640625 23.5 -0.515625 C 21.144531 0.609375 18.84375 1.171875 16.59375 1.171875 Z M 26.734375 -33.171875 C 25.523438 -33.171875 24.210938 -32.695312 22.796875 -31.75 C 21.378906 -30.8125 19.988281 -29.503906 18.625 -27.828125 L 14 -5.109375 C 15.9375 -3.171875 17.953125 -2.203125 20.046875 -2.203125 C 23.140625 -2.203125 25.679688 -3.828125 27.671875 -7.078125 C 28.398438 -8.335938 29.078125 -9.9375 29.703125 -11.875 C 30.335938 -13.8125 30.851562 -15.921875 31.25 -18.203125 C 31.644531 -20.484375 31.84375 -22.695312 31.84375 -24.84375 C 31.84375 -27.457031 31.410156 -29.5 30.546875 -30.96875 C 29.679688 -32.4375 28.410156 -33.171875 26.734375 -33.171875 Z M 26.734375 -33.171875 "/></g></g><g style="fill:#000000;fill-opacity:1;"><g transform="translate(173.573014, 176.560352)"><path style="stroke:none" d="M 17.296875 1.171875 C 13.359375 1.171875 10.160156 -0.109375 7.703125 -2.671875 C 5.242188 -5.242188 4.015625 -8.882812 4.015625 -13.59375 C 4.015625 -16.945312 4.585938 -20.144531 5.734375 -23.1875 C 6.890625 -26.226562 8.5 -28.941406 10.5625 -31.328125 C 12.632812 -33.710938 15.035156 -35.582031 17.765625 -36.9375 C 20.492188 -38.300781 23.457031 -38.984375 26.65625 -38.984375 C 29.945312 -38.984375 32.472656 -38.238281 34.234375 -36.75 C 35.992188 -35.257812 36.875 -33.28125 36.875 -30.8125 C 36.875 -28.769531 35.914062 -26.753906 34 -24.765625 C 32.082031 -22.773438 29.394531 -20.976562 25.9375 -19.375 C 22.476562 -17.78125 18.414062 -16.5625 13.75 -15.71875 C 13.800781 -12.101562 14.585938 -9.457031 16.109375 -7.78125 C 17.628906 -6.101562 19.726562 -5.265625 22.40625 -5.265625 C 24.65625 -5.265625 26.722656 -5.878906 28.609375 -7.109375 C 30.492188 -8.347656 32.09375 -9.804688 33.40625 -11.484375 L 34.1875 -10.921875 C 33.144531 -8.878906 31.796875 -6.941406 30.140625 -5.109375 C 28.492188 -3.273438 26.59375 -1.769531 24.4375 -0.59375 C 22.289062 0.582031 19.910156 1.171875 17.296875 1.171875 Z M 26.09375 -36.875 C 24.894531 -36.875 23.597656 -36.347656 22.203125 -35.296875 C 20.816406 -34.242188 19.503906 -32.8125 18.265625 -31 C 17.035156 -29.195312 16.015625 -27.128906 15.203125 -24.796875 C 14.398438 -22.460938 13.914062 -19.988281 13.75 -17.375 C 19.519531 -18.945312 23.625 -21.015625 26.0625 -23.578125 C 28.5 -26.148438 29.71875 -29.0625 29.71875 -32.3125 C 29.71875 -33.882812 29.375 -35.035156 28.6875 -35.765625 C 28.007812 -36.503906 27.144531 -36.875 26.09375 -36.875 Z M 26.09375 -36.875 "/></g></g><g style="fill:#000000;fill-opacity:1;"><g transform="translate(205.487803, 176.560352)"><path style="stroke:none" d="M 3.609375 0.546875 L 2.828125 0 L 8.796875 -28.765625 C 9.066406 -30.128906 8.988281 -31.140625 8.5625 -31.796875 C 8.144531 -32.453125 7.441406 -32.988281 6.453125 -33.40625 L 5.265625 -33.953125 L 5.421875 -34.75 L 19.109375 -39.0625 L 19.890625 -38.359375 L 17.765625 -25.390625 C 18.867188 -27.910156 20.148438 -30.191406 21.609375 -32.234375 C 23.078125 -34.273438 24.625 -35.910156 26.25 -37.140625 C 27.875 -38.367188 29.5 -38.984375 31.125 -38.984375 C 32.75 -38.984375 34.054688 -38.550781 35.046875 -37.6875 C 36.046875 -36.820312 36.546875 -35.6875 36.546875 -34.28125 C 36.546875 -32.8125 36.113281 -31.601562 35.25 -30.65625 C 34.382812 -29.71875 33.222656 -29.25 31.765625 -29.25 C 30.609375 -29.25 29.503906 -29.546875 28.453125 -30.140625 C 27.410156 -30.742188 26.390625 -31.625 25.390625 -32.78125 C 23.554688 -31.414062 21.984375 -29.644531 20.671875 -27.46875 C 19.359375 -25.300781 18.15625 -22.929688 17.0625 -20.359375 L 16.265625 -16.75 C 15.691406 -13.96875 15.140625 -11.1875 14.609375 -8.40625 C 14.085938 -5.632812 13.566406 -2.832031 13.046875 0 Z M 3.609375 0.546875 "/></g></g><g style="fill:#000000;fill-opacity:1;"><g transform="translate(235.044308, 176.560352)"><path style="stroke:none" d=""/></g></g><g style="fill:#000000;fill-opacity:1;"><g transform="translate(248.48592, 176.560352)"><path style="stroke:none" d="M 26.171875 1.171875 C 19.253906 1.171875 13.972656 -0.382812 10.328125 -3.5 C 6.691406 -6.613281 4.875 -10.6875 4.875 -15.71875 C 4.875 -18.132812 5.410156 -20.46875 6.484375 -22.71875 C 7.554688 -24.96875 9.078125 -26.984375 11.046875 -28.765625 C 13.015625 -30.546875 15.28125 -31.9375 17.84375 -32.9375 C 16.6875 -34.820312 16.109375 -36.785156 16.109375 -38.828125 C 16.109375 -41.398438 16.816406 -43.769531 18.234375 -45.9375 C 19.648438 -48.113281 21.628906 -49.882812 24.171875 -51.25 C 26.710938 -52.613281 29.632812 -53.296875 32.9375 -53.296875 C 36.8125 -53.296875 39.835938 -52.625 42.015625 -51.28125 C 44.191406 -49.945312 45.304688 -48.101562 45.359375 -45.75 C 45.359375 -44.695312 45.03125 -43.75 44.375 -42.90625 C 43.71875 -42.070312 42.65625 -41.65625 41.1875 -41.65625 C 38.78125 -41.65625 37 -43.304688 35.84375 -46.609375 L 35.453125 -47.953125 C 35.085938 -49.160156 34.484375 -50.0625 33.640625 -50.65625 C 32.804688 -51.257812 31.785156 -51.40625 30.578125 -51.09375 C 29.367188 -50.9375 28.148438 -50.410156 26.921875 -49.515625 C 25.691406 -48.628906 24.679688 -47.382812 23.890625 -45.78125 C 23.109375 -44.1875 22.71875 -42.1875 22.71875 -39.78125 C 22.71875 -38.832031 22.804688 -37.898438 22.984375 -36.984375 C 23.171875 -36.066406 23.445312 -35.21875 23.8125 -34.4375 C 24.65625 -34.539062 25.492188 -34.59375 26.328125 -34.59375 C 31.628906 -34.59375 34.28125 -33.148438 34.28125 -30.265625 C 34.28125 -29.109375 33.882812 -28.1875 33.09375 -27.5 C 32.3125 -26.820312 31.109375 -26.484375 29.484375 -26.484375 C 27.535156 -26.484375 25.695312 -26.875 23.96875 -27.65625 C 22.238281 -28.445312 20.75 -29.5 19.5 -30.8125 C 17.875 -29.5 16.578125 -27.820312 15.609375 -25.78125 C 14.640625 -23.738281 14.15625 -21.515625 14.15625 -19.109375 C 14.15625 -14.910156 15.554688 -11.722656 18.359375 -9.546875 C 21.160156 -7.367188 24.65625 -6.28125 28.84375 -6.28125 C 33.71875 -6.28125 37.359375 -7.117188 39.765625 -8.796875 C 42.179688 -10.472656 43.390625 -12.546875 43.390625 -15.015625 C 43.390625 -17.054688 42.773438 -18.664062 41.546875 -19.84375 C 40.316406 -21.03125 38.023438 -21.78125 34.671875 -22.09375 L 35.140625 -24.53125 C 39.910156 -25.050781 43.695312 -26.617188 46.5 -29.234375 C 49.300781 -31.859375 51.515625 -35.554688 53.140625 -40.328125 L 60.53125 -36.953125 C 59.164062 -34.273438 57.671875 -31.96875 56.046875 -30.03125 C 54.421875 -28.09375 52.425781 -26.53125 50.0625 -25.34375 C 47.707031 -24.164062 44.75 -23.394531 41.1875 -23.03125 C 43.125 -22.351562 44.578125 -21.226562 45.546875 -19.65625 C 46.523438 -18.082031 47.015625 -16.40625 47.015625 -14.625 C 47.015625 -11.632812 46.109375 -8.945312 44.296875 -6.5625 C 42.484375 -4.175781 40.003906 -2.289062 36.859375 -0.90625 C 33.722656 0.476562 30.160156 1.171875 26.171875 1.171875 Z M 26.171875 1.171875 "/></g></g></g></svg>